<?xml version="1.0" encoding="utf-8" ?><svg xmlns="http://www.w3.org/2000/svg" xmlns:xlink="http://www.w3.org/1999/xlink" width="1024" height="1024" viewBox="0 0 1024 1024"><path fill="#FEFEFE" d="M0 0L1024 0L1024 1024L0 1024L0 0Z"/><path fill="#0BB759" d="M878.349 292.162C880.448 292.188 885.38 292.509 886.969 292.39C888.343 294.664 887.212 383.197 887.186 393.181L887.455 739.281L887.227 842.404L887.198 876.312C887.144 898.218 887.614 917.483 868.404 932.729C861.276 938.387 852.075 944.194 842.659 944.495C829.926 944.902 817.015 944.49 804.235 944.446L727.252 944.322L476.209 944.277L271.438 944.234L214.249 944.346C188.099 944.46 167.837 948.266 149.971 925.178C170.004 905.194 192.39 884.602 213.009 865.031C251.607 827.961 290.476 791.175 329.612 754.674L380.514 706.133C384.738 702.171 393.095 693.175 396.861 690.507C415.395 690.214 435.105 690.608 453.734 690.673L553.244 690.807L878.484 690.865L878.528 398.996C878.524 363.705 878.973 327.372 878.349 292.162Z"/><path fill="#0BB759" d="M138.688 84.531L503.549 84.5088L616.231 84.8251C635.023 84.8929 658.421 85.6031 676.789 84.8035C676.555 87.9484 676.456 90.376 676.455 93.5284L157.264 93.6179C173.096 105.843 190.401 122.343 205.806 135.561L320.209 235.078L375.99 283.602C383.971 290.488 393.235 299.157 401.294 305.579C381.529 348.327 362.377 391.356 343.842 434.651C336.254 452.066 323.166 478.204 317.499 494.896C321.036 505.654 330.516 525.377 335.235 536.727C350.005 572.648 365.054 608.454 380.379 644.141C385.095 655.344 391.765 668.778 395.427 680.485C395.828 681.767 394.94 683.994 394.131 685.109C393.371 686.155 390.309 686.111 388.827 686.088C365.087 685.729 341.369 685.435 317.626 685.396L147.413 685.468C146.922 704.869 147.262 725.932 147.282 745.439L147.19 846.296C147.154 858.664 147.199 871.031 147.325 883.398C147.372 889.702 147.612 896.826 147.157 903.08C146.937 906.1 144.119 911.83 142.75 914.876C135.955 897.014 137.872 882.379 137.882 863.606L137.956 803.748L137.985 627.688L138.688 84.531Z"/><path fill="#FEFEFE" d="M148.413 322.755C152.916 326.953 159.583 334.777 164.048 339.555C178.69 355.391 193.218 371.333 207.631 387.379L234.289 417.027C239.399 422.67 247.68 431.222 251.707 437.131L181.744 437.096C179.29 435.704 177.195 434.008 176.875 431.095C176.139 424.418 176.427 417.295 176.443 410.581L176.474 373.806C172.95 373.575 169.531 373.757 166.004 373.876L165.927 410.958C165.917 420.644 163.996 434.149 171.084 441.401C177.538 448.005 184.707 447.152 193.142 447.24C197.414 447.284 201.666 447.287 205.926 447.312C224.757 447.481 243.588 447.506 262.419 447.384C267.149 454.321 272.823 459.631 278.515 465.747C285.442 473.19 292.448 480.845 298.521 489.007L176.423 489.359L176.365 460.487L165.512 460.578C165.507 478.817 165.483 497.075 165.542 515.311C165.546 516.323 165.577 520.157 166.302 520.65C168.083 521.862 173.766 521.178 176.014 521.039C176.246 513.727 176.189 506.839 176.097 499.518C189.588 500.017 205.487 499.553 219.197 499.526L297.125 499.588L302.418 499.618C294.205 508.206 286.84 517.93 278.881 526.794C270.915 535.667 263.249 544.83 255.012 553.463C229.212 553.894 202.241 553.488 176.369 553.452C176.43 547.937 176.32 542.421 176.037 536.913C172.309 536.476 169.229 536.556 165.469 536.583L165.585 620.874C168.655 621.114 173.088 620.99 176.272 620.99C177.051 604.608 176.283 580.707 176.162 563.981L245.688 563.964C232.6 577.803 220.712 591.974 208.092 606.082L147.98 672.578C147.353 653.036 147.868 630.662 147.85 610.942L147.948 481.394L148.061 377.248C148.098 360.551 147.543 339.108 148.413 322.755Z"/><path fill="#FEFEFE" d="M310.857 505.92C312.968 508.874 321.533 531.53 323.569 536.221C329.382 549.613 335.104 563.586 340.732 577.057L367.832 640.659C372.115 650.695 377.737 662.754 381.365 672.835C361.121 663.581 340.732 654.65 320.203 646.045C299.924 637.118 279.719 628.023 259.59 618.761C247.677 613.407 235.781 608.373 223.965 602.777C234.259 592.575 245.546 578.973 255.302 567.986C273.526 547.464 292.944 526.605 310.857 505.92Z"/><path fill="#FEFEFE" d="M384.873 316.077L385.159 316.232C384.87 317.742 381.989 322.965 381.132 324.837C376.499 334.842 371.926 344.874 367.414 354.933C363.357 364.138 359.366 374.947 354.938 383.875C338.607 416.802 326.575 453.05 309.806 485.64C297.58 471.574 283.962 456.846 271.384 443.048C257.088 426.612 242.527 410.409 227.705 394.445C234.316 391.476 240.998 387.825 247.508 384.54L283.18 366.567C308.302 353.879 333.56 341.462 358.95 329.319C367.403 325.182 376.613 319.752 384.873 316.077Z"/><path fill="#FEFEFE" d="M148.44 98.907C154.389 103.743 160.072 109.23 165.913 114.282C184.999 130.79 206.004 147.652 224.044 165.181C224.046 177.727 222.708 193.215 222.149 206.038L218.988 285.714C216.823 287.81 214.366 289.976 212.13 292.027C208.303 295.041 202.98 300.053 199.208 303.404C192.202 303.335 185.196 303.377 178.192 303.53C176.499 294.908 175.293 285.177 174.012 276.396L166.932 227.078L148.44 98.907Z"/><path fill="#FEFEFE" d="M360.338 313.232L368.113 313.057C319.74 338.203 269.311 362.003 220.625 386.808C212.552 378.904 200.815 364.748 192.956 355.845C191.044 353.814 189.068 351.589 187.242 349.467C176.896 337.442 165.485 326.146 155.284 314.027C162.187 313.522 170.465 313.679 177.472 313.654L213.886 313.559L304.171 313.468C322.637 313.469 341.92 313.693 360.338 313.232Z"/><path fill="#FEFEFE" d="M217.025 611.322L320.496 656.989C335.658 663.557 349.197 669.633 364.67 675.653C346.546 676.232 325.966 675.759 307.625 675.717C257.888 675.375 207.647 676.321 158.132 675.806C165.253 669.047 173.519 659.09 180.185 651.603C192.264 637.994 204.546 624.566 217.025 611.322Z"/><path fill="#FEFEFE" d="M298.371 229.862C306.394 235.304 315.931 244.915 323.604 251.676C342.899 268.674 363.648 285.993 382.349 303.506C354.998 302.64 327.166 303.162 299.75 303.273L214.197 303.491C238.829 282.995 262.239 260.233 286.956 239.748C290.822 236.544 294.639 233.222 298.371 229.862Z"/><path fill="#FEFEFE" d="M233.649 172.291C236.465 174.353 242.792 181.116 246.215 183.981C261.479 196.758 276.546 209.784 291.184 223.28C281.585 230.76 269.848 241.498 260.592 249.593C251.786 257.179 236.471 269.395 228.931 277.149L233.649 172.291Z"/><path fill="#FEFEFE" d="M148.253 169.441C148.612 169.9 166.362 291.446 167.896 303.438C161.374 303.219 154.982 303.339 148.46 303.424L148.316 218.917C148.237 203.743 147.526 184.363 148.253 169.441Z"/><path fill="#05816B" d="M676.789 84.8035C682.88 89.0723 697.125 103.838 702.975 109.636L750.561 156.717C780.095 185.75 809.478 214.936 838.709 244.273C854.085 259.515 872.356 276.691 886.969 292.39C885.38 292.509 880.448 292.188 878.349 292.162C835.933 291.385 791.866 291.991 749.302 291.962L718.77 292.015C712.99 292.031 704.741 292.408 699.255 291.451C689.819 289.586 678.911 280.459 677.459 270.656C676.333 263.059 676.696 255.172 676.716 247.564L676.786 214.253L676.455 93.5284C676.456 90.376 676.555 87.9484 676.789 84.8035Z"/><path fill="#0BB759" d="M159.29 697.962C167.583 697.84 175.876 697.834 184.169 697.945C189.865 703.03 202.885 714.033 206.102 720.284C208.391 724.731 221.389 824.685 222.483 837.214C220.091 840.55 213.883 846.235 210.698 849.308L191.96 867.367C181.152 878.14 169.776 888.035 159.158 899.161C159.671 890.931 159.376 879.447 159.415 870.916L159.478 813.362C159.453 775.996 160.356 735.034 159.29 697.962Z"/><path fill="#0BB759" d="M201.702 697.573L295.322 697.676C320.061 697.679 345.131 697.348 369.817 697.648C355.623 710.725 341.673 724.064 327.974 737.659C314.516 751.472 300.043 763.909 286.272 778.351C281.616 774.821 268.039 760.884 263.377 756.313L225.268 719.61C218.341 712.982 208.947 703.524 201.702 697.573Z"/><path fill="#095D30" d="M446.586 443.699C467.488 441.105 487.304 449.629 502.652 463.315C499.725 466.55 497.325 469.431 494.598 472.84C486.002 465.734 480.705 461.303 469.793 457.698C455.363 452.892 439.609 454.069 426.053 460.965C413.533 467.374 404.066 478.486 399.727 491.866C395.636 504.885 397.18 520.998 403.558 533.081C416.995 558.537 452.537 569.131 477.826 555.321C491.487 547.861 495.201 538.573 499.433 524.419C492.617 524.207 485.117 524.351 478.25 524.346C470.175 524.384 462.099 524.308 454.026 524.119L454 512.666C472.686 512.172 493.746 512.541 512.593 512.492C512.449 596.124 392.778 589.723 384.915 514.938C383.067 497.427 388.32 479.908 399.496 466.302C411.527 451.636 428.143 445.453 446.586 443.699Z"/><path fill="#095D30" d="M688.52 443.236C703.384 443.129 720.304 447.834 731.162 458.325L724.197 467.144C715.076 462.709 713.065 459.138 701.358 456.224C687.362 452.887 672.614 455.188 660.3 462.633C648.504 469.818 640.388 482.572 637.161 495.845C633.754 509.588 635.982 524.123 643.349 536.215C650.945 548.615 663.191 557.455 677.352 560.762C692.104 564.283 705.448 561.686 718.329 553.879C723.172 550.902 726.441 547.762 729.909 543.35C733.352 545.757 736.749 548.228 740.099 550.761C739.675 551.3 739.236 551.828 738.782 552.342C714.732 579.504 671.278 580.552 644.659 556.701C618.042 532.851 616.054 489.3 640.88 463.383C654.419 449.249 669.224 443.975 688.52 443.236Z"/><path fill="#095D30" d="M729.695 445.483L743.161 445.53C745.387 451.976 748.832 459.916 751.418 466.357C757.185 480.818 763.093 495.223 769.141 509.569C775.077 523.774 780.525 538.888 786.439 552.674C790.628 544.345 795.781 528.953 799.799 519.723C810.276 495.657 819.796 471.01 829.395 446.58L842.757 446.574C840.894 451.313 838.996 456.038 837.065 460.75C831.577 475.909 824.487 491.447 818.317 506.367L791.68 571.848C788.277 571.947 784.737 571.913 781.321 571.927C769.953 542.789 758.126 513.832 745.845 485.066C740.475 472.225 735.21 457.977 729.695 445.483Z"/><path fill="#095D30" d="M608.755 445.25L629.789 445.178C629.97 448.797 629.948 452.589 629.979 456.226C618.824 456.573 606.714 456.411 595.501 456.458L595.612 572.054L583.122 572.096L583.127 559.75L583.01 493.895C583.024 481.975 582.746 468.117 583.319 456.343C572.371 456.219 561.155 456.342 550.186 456.344L549.954 445.387L608.755 445.25Z"/><path fill="#0BB759" d="M221.184 733.498C230.726 742.413 239.801 751.968 249.23 760.902C258.599 769.779 267.105 777.496 276.103 786.824C270.376 792.969 262.561 800.188 256.355 805.996C249.064 813.122 241.684 820.156 234.217 827.097C233.464 816.408 230.723 803.036 229.14 792.2C226.336 773.01 223.026 752.76 221.184 733.498Z"/><path fill="#095D30" d="M528.778 445.45C532.824 445.363 536.982 445.387 541.039 445.36C540.924 487.328 541.4 530.22 540.791 572.04L528.65 572.128L528.778 445.45Z"/></svg>