<?xml version="1.0" encoding="utf-8" ?><svg xmlns="http://www.w3.org/2000/svg" xmlns:xlink="http://www.w3.org/1999/xlink" width="1024" height="1024" viewBox="0 0 1024 1024"><path fill="#C8E3BF" d="M0 0L1024 0L1024 1024L0 1024L0 0Z"/><path fill="#008065" d="M497.92 198.716C615.974 194.54 723.419 270.108 757.532 382.773C771.582 429.179 774.939 472.056 764.318 519.676C749.034 588.848 706.477 648.922 646.291 686.285C651.52 694.748 658.578 704.189 664.244 712.649L696.944 762.169C714.87 789.065 736.45 811.793 716.965 845.238C710.189 856.98 698.948 865.478 685.804 868.797C665.759 873.918 645.916 868.043 632.449 852.271C625.779 844.459 623.366 836.522 620.9 826.818L600.263 739.007C597.836 728.812 595.529 717.051 592.769 707.156C572.645 715.684 540.648 721.48 518.935 722.674C448.571 727.174 379.325 703.38 326.589 656.579C275.884 610.321 245.442 545.951 241.856 477.409C238.198 406.701 262.872 337.451 310.414 284.985C345.735 245.817 396.934 215.223 448.664 204.452C464.852 201.081 481.447 199.577 497.92 198.716Z"/><path fill="#FBAF33" d="M400.085 251.363C404.484 251.602 409.244 251.984 413.64 252.448C440.601 255.296 468.272 256.66 495.112 260.16C472.751 307.253 532.871 337.247 557.202 295.861C562.229 287.311 560.878 275.509 557.775 266.332C568.142 267.214 579.562 268.706 590.047 269.764L663.171 276.976C662.431 292.618 659.707 313.106 658.051 329.047C655.305 355.307 652.745 381.587 650.369 407.883C644.074 408.134 633.634 409.662 627.076 410.414C632.529 420.046 637.913 429.716 643.228 439.424C643.049 450.292 641.848 461.589 640.879 472.455C639.58 487.312 638.172 502.16 636.653 516.997C634.43 540.018 632.741 562.879 630.41 586.051L413.342 567.034C398.826 565.667 384.112 564.576 369.652 563.056L390.761 350.957C392.487 332.64 394.338 314.334 396.313 296.041C397.739 282.761 399.907 264.592 400.085 251.363Z"/><path fill="#017F5B" d="M576.482 414.692C580.109 414.217 586.508 414.258 590.105 414.573C606.152 415.872 620.983 423.634 631.197 436.079C626.923 440.689 620.379 445.997 615.444 450.291C601.489 434.733 578.17 432.044 560.666 443.16C550.627 449.65 543.595 459.879 541.133 471.577C538.754 483.379 541.168 495.644 547.842 505.664C554.134 515.171 563.943 521.79 575.113 524.067C587.089 526.416 597.345 524.814 607.49 518.085L613.166 513.834C617.867 519.807 622.684 525.689 627.611 531.477C616.257 539.217 606.823 546.046 592.713 547.65C534.188 554.303 495.36 486.712 531.745 439.967C542.68 425.901 558.791 416.799 576.482 414.692Z"/><path fill="#017F5B" d="M435.041 404.402C445.586 404.822 458.015 406.084 468.569 406.999L513.089 410.866C512.341 418.071 511.615 424.76 511.359 432.004C502.088 430.754 492.484 430.564 483.049 429.314C483.004 432.031 482.779 434.898 482.522 437.611C480.234 461.835 478.619 486.188 476.089 510.382C475.4 519.737 474.61 529.084 473.719 538.423C467.378 537.537 457.118 537.16 450.59 536.76L460.123 427.051C453.279 426.048 440.625 425.655 433.453 425.221C433.829 418.428 434.513 411.218 435.041 404.402Z"/><path fill="#017F5B" d="M394.59 401.264C402.375 401.698 409.373 402.326 417.142 403.095C416.139 417.589 406.594 531.542 405.824 532.793C398.021 532.152 390.403 531.217 382.552 530.886C386.132 487.64 390.145 444.43 394.59 401.264Z"/><path fill="#017F5B" d="M414.139 368.274C460.932 371.274 510.877 376.586 557.81 380.832L603.966 384.911C611.28 385.505 618.896 386.01 626.239 386.595C627.731 386.714 627.823 387.105 628.525 388.007C628.866 390.26 628.626 390.645 628.023 392.925C622.934 393.098 608.308 391.481 602.743 390.998L551.941 386.442C519.642 383.653 487.359 380.677 455.094 377.513C450.398 377.085 415.979 374.493 414.048 373.446C413.283 371.671 413.832 370.445 414.139 368.274Z"/><path fill="#017F5B" d="M418.085 328.236C418.489 328.258 418.893 328.281 419.297 328.307C462.402 331.193 507.297 336.123 550.374 340.111L600.948 344.54C609.702 345.287 618.586 345.887 627.305 346.87C629.505 347.118 631.096 347.152 632.402 348.63C632.685 350.468 632.357 350.872 631.643 352.571C630.072 353.47 629.783 353.415 628.006 353.256C609.898 351.638 591.765 349.783 573.666 348.096L487.927 340.355L442.921 336.215C436.083 335.614 424.592 334.976 418.32 333.818C417.586 332.426 418.008 330.074 418.085 328.236Z"/><path fill="#017F5B" d="M420.393 289.827C425.795 290.077 480.19 293.697 481.984 295.149C482.884 296.973 482.43 298.548 482.19 300.648C477.411 300.631 421.423 295.817 420.213 295.076C419.707 293.291 420.122 291.685 420.393 289.827Z"/><path fill="#017F5B" d="M576.733 303.956L613.273 307.135C617.551 307.494 633.958 308.044 636.367 310.473C636.855 312.213 636.392 313.216 635.932 314.977C631.585 315.111 621.442 313.994 616.703 313.58L576.47 309.803C576.484 307.934 576.638 305.842 576.733 303.956Z"/><path fill="#F5D902" d="M318.34 402.218C339.001 401.49 356.864 407.091 371.06 422.494C365.963 426.431 361.307 429.765 356.011 433.435C337.545 417.818 311.703 415.37 293.071 432.088C283.419 440.652 277.594 452.72 276.893 465.604C275.431 494.21 298.403 518.463 327.736 514.102C335.737 512.912 343.818 509.957 349.87 504.437C349.879 498.237 350.868 489.347 351.642 483.143C342.427 482.838 331.256 481.664 321.924 480.935L322.802 470.622L323.599 462.918C337.73 463.417 358.44 464.912 372.287 466.743C371.958 472.706 370.878 479.894 370.243 486.006L367.32 516.408C341.613 537.408 304.899 541.279 279.207 517.875C238.185 480.506 260.477 404.706 318.34 402.218Z"/><path fill="#F5D902" d="M750.01 401.661C750.887 403.427 738.36 445.787 736.574 452.457C728.574 482.552 721.206 512.811 714.473 543.214C710.817 535.537 702.41 522.389 697.755 514.375L656.087 443.242C650.778 434.064 645.881 426.549 639.914 417.769L658.753 413.231C670.753 435.577 684.587 456.633 696.77 478.858C700.393 485.467 704.398 493.409 709.104 499.191C711.831 478.383 719.037 454.268 724.018 433.687C726.282 424.336 728.06 415.206 730.254 405.977C736.441 404.426 743.575 403.169 750.01 401.661Z"/><path fill="#C8E3BF" d="M667.569 794.09C676.849 792.32 686.365 795.677 692.481 802.877C698.598 810.078 700.371 820.011 697.123 828.883C693.876 837.755 686.11 844.196 676.79 845.747C662.614 848.106 649.178 838.622 646.653 824.475C644.128 810.328 653.452 796.782 667.569 794.09Z"/><path fill="#FBAF33" d="M514.226 262.899C521.975 263.334 529.715 263.904 537.444 264.607C548.838 274.775 547.213 289.127 534.882 297.661C531.121 299.544 528.022 300.485 523.741 300.177C518.358 299.769 513.379 297.171 509.964 292.989C501.964 283.295 504.44 270.316 514.226 262.899Z"/><path fill="#FBAF33" d="M524.145 662.481C530.763 659.544 533.072 657.254 538.712 652.613C537.691 655.861 536.333 660.885 534.251 663.507C532.337 667.984 524.576 674.007 520.103 675.541C501.768 681.829 489.017 669.473 483.384 653.932C496.3 663.859 508.373 667.408 524.145 662.481Z"/><path fill="#E0C47F" d="M524.145 662.481C530.763 659.544 533.072 657.254 538.712 652.613C537.691 655.861 536.333 660.885 534.251 663.507C534.376 662.613 534.49 661.717 534.595 660.821C531.614 660 530.769 663.6 524.145 662.481Z"/><path fill="#FBAF33" d="M472.343 605.063C477.376 604.537 481.875 608.208 482.368 613.244C482.862 618.28 479.161 622.755 474.123 623.216C469.129 623.673 464.704 620.013 464.215 615.023C463.726 610.033 467.356 605.584 472.343 605.063Z"/><path fill="#FBAF33" d="M553.711 607.674C558.537 607.394 562.741 610.931 563.292 615.733C563.842 620.535 560.547 624.932 555.784 625.751C552.455 626.324 549.082 625.008 547.021 622.333C544.959 619.657 544.547 616.06 545.949 612.987C547.352 609.914 550.339 607.869 553.711 607.674Z"/></svg>